<?xml version="1.0" encoding="UTF-8" standalone="no"?><!-- Generator: Gravit.io --><svg xmlns="http://www.w3.org/2000/svg" xmlns:xlink="http://www.w3.org/1999/xlink" style="isolation:isolate" viewBox="584.675 213.57 92.65 85.43" width="92.65pt" height="85.43pt"><defs><clipPath id="_clipPath_uDuJuDBXEzy2IyLLR3o0H7qpnIU6kw1T"><rect x="584.675" y="213.57" width="92.65" height="85.43"/></clipPath></defs><g clip-path="url(#_clipPath_uDuJuDBXEzy2IyLLR3o0H7qpnIU6kw1T)"><g><linearGradient id="_lgradient_17" x1="0.5" y1="0.9999999999999991" x2="0.5475106074671879" y2="-0.009588096999587847" gradientTransform="matrix(118.427,0,0,102.561,571.787,213.57)" gradientUnits="userSpaceOnUse"><stop offset="0%" stop-opacity="1" style="stop-color:rgb(137,2,204)"/><stop offset="100%" stop-opacity="1" style="stop-color:rgb(89,0,255)"/></linearGradient><path d=" M 605.538 213.57 L 631 213.57 L 656.462 213.57 C 675.09 213.57 682.652 226.667 673.338 242.8 L 660.607 264.85 L 647.876 286.901 C 638.562 303.033 623.438 303.033 614.124 286.901 L 601.393 264.85 L 588.662 242.8 C 579.348 226.667 586.91 213.57 605.538 213.57 Z " fill="url(#_lgradient_17)"/><path d=" M 605.224 224.251 L 631 224.251 L 656.776 224.251 C 665.872 224.251 669.564 230.646 665.016 238.523 L 652.128 260.846 L 639.24 283.169 C 634.692 291.046 627.308 291.046 622.76 283.169 L 609.872 260.846 L 596.984 238.523 C 592.436 230.646 596.128 224.251 605.224 224.251 Z " fill="rgb(255,255,255)"/></g></g></svg>